<svg xmlns="http://www.w3.org/2000/svg" viewBox="0 0 118.79 118.59"><defs><style>.cls-1,.cls-2{fill:#00c9a7}.cls-1{opacity:.15}.cls-3{fill:#00c9a7}.cls-4{fill:#fff}.cls-5{fill:#3e6177}.cls-6{fill:#d5dfeb}</style></defs><title>Asset 186</title><g id="Layer_2" data-name="Layer 2"><g id="Layer_1-2" data-name="Layer 1"><rect width="147" height="50" x="-14.21" y="34.29" class="cls-1" rx="25" ry="25" transform="translate(-24.56 59.29) rotate(-45)"/><rect width="20" height="80" x="12.79" y="12.29" class="cls-2"/><rect width="20" height="70" x="74.79" y="23.29" class="cls-3"/><rect width="20" height="45" x="43.79" y="46.29" class="cls-4"/><path d="M105.29,53.29a6.5,6.5,0,1,1,6.5-6.5A6.51,6.51,0,0,1,105.29,53.29Zm0-10a3.5,3.5,0,1,0,3.5,3.5A3.5,3.5,0,0,0,105.29,43.29Z" class="cls-5"/><path d="M45.29,35.29a6.5,6.5,0,1,1,6.5-6.5A6.51,6.51,0,0,1,45.29,35.29Zm0-10a3.5,3.5,0,1,0,3.5,3.5A3.5,3.5,0,0,0,45.29,25.29Z" class="cls-3"/><circle cx="56.04" cy="101.04" r="2.75" class="cls-3"/><circle cx="26.04" cy="5.04" r="2.75" class="cls-3"/><circle cx="115.04" cy="96.04" r="2.75" class="cls-6"/><circle cx="6.04" cy="30.04" r="2.75" class="cls-6"/><path d="M34.79,93.29h-23v-83h23Zm-20-3h17v-77h-17Z" class="cls-5"/><path d="M65.79,93.79h-23v-49h23Zm-20-3h17v-43h-17Z" class="cls-5"/><path d="M96.79,94.29h-23v-71h23Zm-20-3h17v-65h-17Z" class="cls-5"/><rect width="2" height="14" x="27.46" y="16.29" class="cls-4"/><rect width="2" height="6" x="27.46" y="32.29" class="cls-4"/><rect width="2" height="2" x="27.46" y="40.29" class="cls-4"/><rect width="2" height="12.69" x="93.32" y="87.88" class="cls-4"/><rect width="2" height="5.44" x="93.32" y="102.38" class="cls-4"/><rect width="2" height="1.81" x="93.32" y="109.63" class="cls-4"/><circle cx="92.62" cy="85.95" r="26.17" class="cls-4"/><circle cx="93.53" cy="85.95" r="21.23" class="cls-3"/><path d="M92.62,108.68a22.73,22.73,0,1,1,22.73-22.73A22.76,22.76,0,0,1,92.62,108.68Zm0-42.47a19.73,19.73,0,1,0,19.73,19.73A19.76,19.76,0,0,0,92.62,66.22Z" class="cls-5"/><path d="M90.7,95.43a1.92,1.92,0,0,1-1.1-.35l-7.67-5.37a1.5,1.5,0,0,1,1.72-2.46L90.47,92l11.13-14.84A1.5,1.5,0,1,1,104,79L92.24,94.65A1.92,1.92,0,0,1,90.7,95.43Z" class="cls-4"/></g></g></svg>